<svg width="597" height="138" viewBox="0 0 597 138" fill="none" xmlns="http://www.w3.org/2000/svg">
<path fill-rule="evenodd" clip-rule="evenodd" d="M2.8284 87.6812C1.2663 86.1191 1.2663 83.5865 2.8284 82.0244L82.0244 2.82843C83.5865 1.26633 86.1191 1.26633 87.6812 2.82843L101.823 16.9705L101.823 16.9706L118.794 33.9411L132.936 48.0832C134.498 49.6453 134.498 52.178 132.936 53.7401L121.622 65.0538C120.06 66.6159 117.528 66.6159 115.965 65.0538L101.823 50.9117L87.6812 36.7696C86.1191 35.2075 83.5865 35.2075 82.0244 36.7696L36.7695 82.0244C35.2074 83.5865 35.2074 86.1191 36.7695 87.6812L50.9116 101.823L65.0538 115.965C66.6159 117.528 66.6159 120.06 65.0538 121.622L53.7401 132.936C52.178 134.498 49.6453 134.498 48.0832 132.936L33.9411 118.794L16.9705 101.823L2.8284 87.6812Z" fill="url(#paint0_linear_8_110)"/>
<path fill-rule="evenodd" clip-rule="evenodd" d="M115.966 132.936C117.528 134.498 120.06 134.498 121.622 132.936L200.818 53.7401C202.38 52.178 202.38 49.6453 200.818 48.0832L189.505 36.7695C187.943 35.2074 185.41 35.2074 183.848 36.7695L121.622 98.9949C120.06 100.557 117.528 100.557 115.966 98.9949L101.823 84.8528L87.6813 70.7107C86.1192 69.1486 83.5865 69.1486 82.0244 70.7107L70.7107 82.0244C69.1486 83.5865 69.1486 86.1191 70.7107 87.6812L84.8529 101.823L101.823 118.794L115.966 132.936Z" fill="url(#paint1_linear_8_110)"/>
<rect x="154.971" y="2" width="24" height="24" rx="4" transform="rotate(45 154.971 2)" fill="#63C5EF"/>
<path d="M240.744 59.408C240.744 47.12 250.92 38.576 265.704 38.576C279.912 38.576 288.936 46.448 289.32 59.12H277.032C276.744 53.072 272.424 49.52 265.512 49.52C257.928 49.52 253.032 53.168 253.032 59.024C253.032 64.016 255.72 66.8 261.576 68.144L272.616 70.544C284.616 73.136 290.472 79.28 290.472 89.744C290.472 102.8 280.296 111.248 264.84 111.248C249.864 111.248 240.072 103.28 239.784 90.704H252.072C252.168 96.656 256.968 100.208 264.84 100.208C273 100.208 278.184 96.656 278.184 90.8C278.184 86.096 275.784 83.312 270.024 82.064L258.888 79.568C246.984 76.976 240.744 70.16 240.744 59.408ZM305.717 53.072C301.685 53.072 298.517 49.904 298.517 45.968C298.517 42.032 301.685 38.96 305.717 38.96C309.557 38.96 312.725 42.032 312.725 45.968C312.725 49.904 309.557 53.072 305.717 53.072ZM299.861 110V62.576H311.573V110H299.861ZM335.385 110H323.673V62.576H334.425L335.385 68.144C337.785 64.208 342.585 61.136 349.401 61.136C356.601 61.136 361.593 64.688 364.089 70.16C366.489 64.688 372.057 61.136 379.257 61.136C390.777 61.136 397.113 68.048 397.113 78.992V110H385.497V82.064C385.497 75.248 381.849 71.696 376.281 71.696C370.617 71.696 366.297 75.344 366.297 83.12V110H354.585V81.968C354.585 75.344 351.033 71.792 345.465 71.792C339.897 71.792 335.385 75.44 335.385 83.12V110ZM408.611 131.984V62.576H419.459L420.227 69.776C423.107 64.304 429.347 61.136 436.547 61.136C449.891 61.136 458.723 70.832 458.723 85.712C458.723 100.496 450.659 111.248 436.547 111.248C429.443 111.248 423.299 108.464 420.323 103.664V131.984H408.611ZM420.419 86.288C420.419 94.832 425.699 100.688 433.763 100.688C442.019 100.688 446.915 94.736 446.915 86.288C446.915 77.84 442.019 71.792 433.763 71.792C425.699 71.792 420.419 77.744 420.419 86.288ZM468.048 131.984V62.576H478.896L479.664 69.776C482.544 64.304 488.784 61.136 495.984 61.136C509.328 61.136 518.16 70.832 518.16 85.712C518.16 100.496 510.096 111.248 495.984 111.248C488.88 111.248 482.736 108.464 479.76 103.664V131.984H468.048ZM479.856 86.288C479.856 94.832 485.136 100.688 493.2 100.688C501.456 100.688 506.352 94.736 506.352 86.288C506.352 77.84 501.456 71.792 493.2 71.792C485.136 71.792 479.856 77.744 479.856 86.288ZM539.294 110H527.678V38.576H539.294V110ZM547.451 131.984V122.192H554.459C559.067 122.192 561.947 121.136 563.963 115.568L565.307 112.016L546.203 62.576H558.587L570.779 97.136L583.643 62.576H595.739L572.507 120.56C568.955 129.392 563.963 133.04 556.187 133.04C552.923 133.04 550.043 132.656 547.451 131.984Z" fill="#1C1C1C"/>
<defs>
<linearGradient id="paint0_linear_8_110" x1="110.309" y1="25.4558" x2="25.4558" y2="110.309" gradientUnits="userSpaceOnUse">
<stop stop-color="#63C5EF"/>
<stop offset="1" stop-color="#1AAAFB"/>
</linearGradient>
<linearGradient id="paint1_linear_8_110" x1="178.191" y1="25.4558" x2="93.3381" y2="110.309" gradientUnits="userSpaceOnUse">
<stop stop-color="#63C5EF"/>
<stop offset="1" stop-color="#1AAAFB"/>
</linearGradient>
</defs>
</svg>
